<svg width="40" height="20" viewBox="0 0 40 20" fill="none" xmlns="http://www.w3.org/2000/svg">
<path fill-rule="evenodd" clip-rule="evenodd" d="M25.098 6.82068C27.3721 6.82068 29.2156 8.66421 29.2156 10.9383C29.2156 13.1895 27.4092 15.0187 25.1668 15.0554L25.098 15.056C22.8239 15.056 20.9803 13.2125 20.9803 10.9383C20.9803 8.66421 22.8239 6.82068 25.098 6.82068ZM21.5686 7.01676L19.9999 9.66382H18.5293C17.8407 9.66382 17.2797 10.2099 17.2556 10.8926L17.2548 10.9383C17.2548 11.6269 17.8009 12.188 18.4836 12.212L18.5293 12.2129H19.9999L21.5686 14.8599H18.0391C15.8732 14.8599 14.1176 13.1042 14.1176 10.9383C14.1176 8.79508 15.837 7.05339 17.9717 7.01733L18.0391 7.01676H21.5686ZM25.098 9.70304C24.4158 9.70304 23.8627 10.2561 23.8627 10.9383C23.8627 11.6206 24.4158 12.1736 25.098 12.1736C25.7801 12.1736 26.3333 11.6206 26.3333 10.9383C26.3333 10.2561 25.7801 9.70304 25.098 9.70304ZM37.0588 7.01676C38.6831 7.01676 40 8.33357 40 9.95794C40 10.0684 40 10.2847 40 10.2847V14.8599H37.451V10.5462C37.451 10.2329 37.1568 9.95794 36.7647 9.95794C36.3725 9.95794 36.0784 10.2521 36.0784 10.5462V14.8599H33.7255V10.5462C33.7255 10.2521 33.4313 9.95794 33.0392 9.95794C32.647 9.95794 32.3529 10.2521 32.3529 10.5462V14.8599H29.8039V10.2847C29.8039 10.1405 29.8039 10.0316 29.8039 9.95794C29.8039 8.33357 31.1207 7.01676 32.7451 7.01676C33.5972 7.01676 34.3649 7.37925 34.9021 7.95845C35.439 7.37925 36.2066 7.01676 37.0588 7.01676Z" fill="#767676"/>
<path d="M1.76433 6.23165C2.73882 6.23165 3.52865 5.44175 3.52865 4.46733C3.52865 3.49291 2.73882 2.703 1.76433 2.703C0.78983 2.703 0 3.49291 0 4.46733C0 5.44175 0.78983 6.23165 1.76433 6.23165Z" fill="#767676"/>
<path d="M12.3525 15.4474C13.327 15.4474 14.1168 14.6576 14.1168 13.6831C14.1168 12.7086 13.327 11.9187 12.3525 11.9187C11.378 11.9187 10.5881 12.7086 10.5881 13.6831C10.5881 14.6576 11.378 15.4474 12.3525 15.4474Z" fill="#767676"/>
<path d="M3.33331 7.01672H0.196045V14.8599H3.33331V7.01672Z" fill="#767676"/>
<path fill-rule="evenodd" clip-rule="evenodd" d="M7.8432 4.46771V7.01674H13.5295L10.8824 9.56577H7.8432V11.7226C7.8432 12.0475 8.10653 12.3109 8.43143 12.3109H10.0001V14.8599H7.25496C5.84711 14.8599 4.70593 13.7187 4.70593 12.3109V4.46771H7.8432Z" fill="#767676"/>
</svg>
